Coordinates
version=1
nRows=16
nColumns=36
inDegrees=yes

Units are S.I. units (second, meters, Newtons, ...)
If the header above contains a line with 'inDegrees', this indicates whether rotational values are in degrees (yes) or radians (no).

endheader
time	pelvis_tilt	pelvis_list	pelvis_rotation	pelvis_tx	pelvis_ty	pelvis_tz	hip_flexion_r	hip_adduction_r	hip_rotation_r	knee_angle_r	knee_angle_r_beta	ankle_angle_r	subtalar_angle_r	mtp_angle_r	hip_flexion_l	hip_adduction_l	hip_rotation_l	knee_angle_l	knee_angle_l_beta	ankle_angle_l	subtalar_angle_l	mtp_angle_l	lumbar_extension	lumbar_bending	lumbar_rotation	arm_flex_r	arm_add_r	arm_rot_r	elbow_flex_r	pro_sup_r	arm_flex_l	arm_add_l	arm_rot_l	elbow_flex_l	pro_sup_l
      1.11000000	     -3.29567421	     -0.61006130	      6.05780883	     -0.41001368	      0.69384891	     -0.60363013	     71.79585373	     -5.65945673	     -3.24951805	    102.43128355	      1.78776316	     34.51476991	     -7.58476477	     -7.46245319	     69.87840730	      1.35919432	      2.78378174	    105.05849483	      1.83361664	     36.41738319	    -11.16389158	     -7.46245319	    -34.85488132	      2.23736180	     -2.53576442	      2.99594606	    -11.15192691	    -11.33155155	     56.41571010	    102.08263775	     -4.32962458	     -3.48814718	    -21.82016226	     72.53205982	     92.12193274
      1.12000000	     -3.31508189	     -0.73820779	      6.01190209	     -0.40851218	      0.68026549	     -0.60401041	     73.14464475	     -5.78483792	     -3.19358791	    104.72192998	      1.82774248	     35.96263488	     -6.55833632	     -7.46444179	     71.24616678	      1.34431360	      2.92871372	    107.36552354	      1.87388189	     37.42787435	    -10.75349717	     -7.46444179	    -35.42111968	      2.33920954	     -3.15471710	      9.24695965	    -12.14090514	     -7.52372914	     54.56653145	    102.54011736	     -0.62721690	     -4.87989445	    -20.45772173	     73.11404561	     92.13206996
      1.13000000	     -3.52020445	     -0.97324207	      6.02950125	     -0.40708215	      0.66720966	     -0.60448789	     74.62710979	     -5.96036290	     -3.32382955	    106.78686474	      1.86378239	     36.80633230	     -6.53374681	     -7.46496044	     72.76688045	      1.35869938	      3.17153735	    109.50228723	      1.91117545	     38.12970191	    -11.00634762	     -7.46496044	    -35.71701265	      2.62158691	     -3.05983573	     14.67828311	    -12.39865984	     -6.65501426	     53.81605468	    102.57834319	      3.42828179	     -6.36348796	    -18.41298229	     73.36915949	     92.25607740
      1.14000000	     -3.62720391	     -1.10561086	      6.09534901	     -0.40562346	      0.65528658	     -0.60535601	     75.96516302	     -6.33424898	     -3.33547944	    108.76221068	      1.89825868	     37.67568830	     -5.69094765	     -7.46718204	     74.03825580	      1.51026490	      3.37964313	    111.46207399	      1.94538018	     38.86432204	    -10.67115662	     -7.46718204	    -36.03264304	      2.91715478	     -3.92339115	     21.05395361	    -12.63146050	     -3.45257240	     51.68658976	    103.38501445	      6.82677713	     -7.80216613	    -17.69710038	     74.18422618	     92.83802429
      1.15000000	     -3.88561563	     -1.32443884	      6.23880383	     -0.40431209	      0.64421445	     -0.60622333	     77.40079207	     -6.73414218	     -3.49716170	    110.52427560	      1.92901251	     38.03019607	     -5.63439771	     -7.46759835	     75.41389992	      1.78289008	      3.69938932	    113.20728034	      1.97583978	     39.43207876	    -10.91839729	     -7.46759835	    -36.17926868	      3.35537442	     -3.81340990	     26.24797140	    -12.49046687	     -3.11838024	     50.99885430	    103.49419267	     10.99921158	     -9.16238389	    -15.98723744	     74.28271580	     93.04922261
      1.16000000	     -4.01393480	     -1.54752153	      6.24166180	     -0.40316519	      0.63460278	     -0.60657876	     78.51985174	     -6.87237601	     -3.64411783	    112.02093237	      1.95513410	     38.50046252	     -5.50126003	     -7.46806176	     76.53852597	      1.84409001	      3.98883979	    114.77546059	      2.00320969	     39.87346267	    -10.93958538	     -7.46806176	    -36.44154940	      3.69145668	     -3.57779974	     31.53705443	    -12.24393727	     -2.59228538	     49.77592735	    103.62458549	     15.33116521	    -10.50711461	    -14.32464192	     73.94052213	     93.25916798
      1.17000000	     -4.06311945	     -1.73904825	      6.23508294	     -0.40226365	      0.62645977	     -0.60665431	     79.29507639	     -6.83091703	     -3.71324974	    113.19627156	      1.97564764	     39.13180257	     -5.49892012	     -7.46847773	     77.42873985	      1.91950059	      4.29391759	    116.11637424	      2.02661305	     40.30856619	    -10.96781448	     -7.46847773	    -36.81726059	      3.97639753	     -3.33157799	     36.73292295	    -11.80272286	     -2.39103219	     48.51886097	    103.73694429	     19.76983185	    -11.77020895	    -12.73856504	     73.34400457	     93.45582430
      1.18000000	     -4.10591944	     -1.77610063	      6.24120129	     -0.40145175	      0.61959688	     -0.60665668	     79.93606811	     -6.75084679	     -3.55419059	    114.19847294	      1.99313935	     39.67328259	     -5.36127885	     -7.46913904	     78.15085653	      2.13428845	      4.49787862	    117.22867215	      2.04602631	     40.62764647	    -10.93425879	     -7.46913904	    -37.16631754	      4.05957548	     -3.04142340	     41.72652360	    -11.43072341	     -2.21454926	     47.03212075	    103.99074770	     24.36834398	    -12.93236444	    -10.80235068	     72.33275365	     93.76338031
      1.19000000	     -4.02814241	     -1.77808672	      6.41215436	     -0.40067398	      0.61425542	     -0.60681993	     80.31248141	     -6.82796549	     -3.44277482	    115.04931190	      2.00798929	     40.25001649	     -5.54387509	     -7.46949904	     78.62397505	      2.56250925	      4.70868643	    118.09947087	      2.06122461	     40.85605016	    -11.17078619	     -7.46949904	    -37.63233873	      4.20202695	     -2.88434549	     46.42353586	    -10.95190911	     -2.42784563	     45.92133577	    104.07077297	     28.96654677	    -13.85616203	     -9.02221774	     71.14537993	     93.89565008
      1.20000000	     -4.16883620	     -1.75148427	      6.46508711	     -0.39975148	      0.60979482	     -0.60673270	     80.86606281	     -6.77432437	     -3.22893122	    115.75835106	      2.02036436	     40.55615638	     -5.34464416	     -7.47052020	     79.22748230	      2.82324159	      4.77333146	    118.80183317	      2.07348315	     40.83377675	    -11.45209237	     -7.47052020	    -37.74343940	      4.11045047	     -2.20798089	     50.43820819	    -11.15396499	     -2.26906865	     45.16091331	    104.45162460	     33.88763982	    -14.42442732	     -6.36110566	     69.21716484	     94.24749668
      1.21000000	     -4.22993837	     -1.79700504	      6.53413241	     -0.39868435	      0.60666507	     -0.60681057	     81.15555175	     -6.68972033	     -3.13578366	    116.26838349	      2.02926611	     40.82130032	     -5.42968173	     -7.47118581	     79.57787015	      3.09414725	      4.91174065	    119.33345560	      2.08276171	     40.90353991	    -11.73449058	     -7.47118581	    -37.87654650	      4.12785759	     -1.78673660	     54.40297513	    -11.05450310	     -2.16490951	     44.33985288	    104.58275848	     38.36174194	    -14.77827447	     -4.48307484	     67.67499408	     94.37162620
      1.22000000	     -4.17132537	     -1.89268188	      6.66709839	     -0.39726772	      0.60485831	     -0.60708805	     81.14839266	     -6.64354872	     -3.16697797	    116.62601750	      2.03550800	     41.05657103	     -5.68260281	     -7.47158361	     79.58191985	      3.46963738	      5.17709289	    119.68710430	      2.08893404	     41.13894822	    -12.10117034	     -7.47158361	    -37.98401227	      4.27811627	     -1.54620008	     58.10136712	    -10.89321387	     -1.67032840	     43.75053667	    104.65319273	     42.38112409	    -15.10385850	     -2.99660079	     66.44411256	     94.40072710
      1.23000000	     -4.31595281	     -2.02012736	      6.67697951	     -0.39562858	      0.60384097	     -0.60708061	     81.30074906	     -6.40231935	     -3.15476824	    116.84798276	      2.03938202	     41.01163143	     -5.88461953	     -7.47226217	     79.68659795	      3.66308068	      5.41024070	    119.90067048	      2.09266148	     41.17975257	    -12.33515762	     -7.47226217	    -37.72361918	      4.27753557	     -1.16923723	     61.38636147	    -11.16126460	     -0.28122797	     43.25741990	    104.82625831	     46.18980178	    -15.40877204	     -1.16009964	     65.28883945	     94.52736843
      1.24000000	     -4.62911739	     -2.13778757	      6.72110007	     -0.39364259	      0.60385920	     -0.60715759	     81.50742092	     -6.21206695	     -3.11591654	    116.94410513	      2.04105968	     41.03926695	     -5.90648691	     -7.47230588	     79.83230134	      3.85469519	      5.57606805	    119.95994332	      2.09369598	     41.26967854	    -12.40439687	     -7.47230588	    -37.26478731	      4.32170582	     -1.22533717	     64.07717822	    -10.79925856	     -0.11007227	     44.03328922	    104.89019411	     49.01236810	    -15.53084552	     -1.14725237	     65.80260016	     94.58497643
      1.25000000	     -4.32977613	     -2.39244789	      6.85148937	     -0.39173068	      0.60630304	     -0.60728102	     80.77749594	     -6.02022592	     -3.40108045	    116.71066203	      2.03698532	     40.93471730	     -6.26197914	     -7.47283979	     79.18130565	      3.99509638	      5.93663025	    119.81545716	      2.09117422	     41.27939692	    -12.76671192	     -7.47283979	    -37.25509843	      4.56886384	     -0.94928361	     66.84384383	    -11.18794997	      1.70046556	     44.14000604	    105.14656097	     52.52675607	    -16.06106204	      1.22999975	     64.57351197	     94.55710908
      1.26000000	     -4.68996068	     -2.49094038	      6.89711731	     -0.38946254	      0.60890665	     -0.60743697	     80.71858686	     -5.84058390	     -3.40419366	    116.42064593	      2.03192359	     40.94561057	     -6.25677731	     -7.47288153	     79.10768502	      4.14976820	      6.05108082	    119.51211021	      2.08587982	     41.31728029	    -12.78373770	     -7.47288153	    -36.47170297	      4.58997810	     -1.11079025	     68.97183372	    -10.79229435	      1.89692740	     45.06659619	    105.21640752	     54.96763405	    -16.13394775	      1.30662852	     65.12884306	     94.60297722
